<svg xmlns="http://www.w3.org/2000/svg" viewBox="0 0 814 1000">
  <path d="M788.1 340.9c-5.8 4.5-108.2 62.2-108.2 190.5 0 148.4 130.3 200.9 134.2 202.2-.6 3.2-20.7 71.9-68.7 141.9-42.8 61.6-87.5 123.1-155.5 123.1s-85.5-39.5-164-39.5c-76 0-103.7 40.8-165.9 40.8s-105-57.8-155.5-127.4C46 376.6 0 228.8 0 188.4c0-43 18.2-65.7 52.5-90.4C79 75.6 122.4 57.2 168 57.2c52.9 0 90.8 35.5 121.2 35.5 29.3 0 74.1-37.4 133.7-37.4 24.1 0 108.2 2.6 164 86.4zm-210.5-157c10.3-47.3 39.5-98.4 68.1-128.4 35.3-36.4 88.5-64.8 138.6-64.8 3.2 0 6.5.3 9.7.6-1.3 50.3-20.3 98-54.9 132.5-32.3 32.3-87.5 58.8-151.5 58.8-3.8.1-7-.3-9.9-1.3z"/>
</svg>
